
<svg xmlns="http://www.w3.org/2000/svg" viewBox="0 0 512 512" width="64" height="64">
  <g>
    <path d="M258.5 40c-10.4 0-19.8 6.3-23.8 15.9-4 9.6-1.6 20.7 6 28.3 7.6 7.6 18.7 10.1 28.3 6 9.6-4 15.9-13.4 15.9-23.8 0-14.4-11.7-26.1-26.1-26.1h-.3v-.3z" fill="#0099ff"/>
    <path d="M227.2 94.7c-6.9 6.9-9.2 17.1-5.9 26.2s12.1 15.1 21.9 15.1c5.3 0 10.4-1.7 14.6-4.9 4.2-3.2 7.1-7.8 8.1-13 .9-4.7.4-9.5-1.6-13.8-1.9-4.3-5.1-7.8-9.1-10.1-4-2.3-8.6-3.3-13.3-2.8-4.7.5-9 2.4-12.6 6l-.1.4-.1-.1z" fill="#0099ff"/>
    <path d="M281.8 49.9c-.5 3.1.6 6.2 2.9 8.2 2.3 2 5.5 2.6 8.4 1.6 2.9-1 5-3.6 5.4-6.7.4-3.1-.7-6.2-3-8.1-2.3-1.9-5.4-2.5-8.3-1.5-2.9 1-4.9 3.4-5.4 6.5z" fill="#0099ff"/>
    <path d="M306.7 39.7c-.3 1.9.4 3.7 1.7 5 1.4 1.2 3.3 1.6 5 1 1.7-.6 3-2.2 3.2-4 .2-1.9-.4-3.7-1.8-4.9-1.4-1.1-3.2-1.5-4.9-.9-1.8.6-3 2.1-3.2 3.8z" fill="#0099ff"/>
    <path d="M220.4 70.3c-.3 2.1.5 4.1 2 5.5s3.7 1.9 5.7 1.2c2-.6 3.4-2.4 3.7-4.5.2-2.1-.5-4.2-2-5.5-1.5-1.3-3.6-1.8-5.6-1.2-2 .7-3.4 2.3-3.7 4.4l-.1.1z" fill="#0099ff"/>
    <path d="M207.1 156.5c-4.9 26.6-4.1 54.6 2 82.1 3.1 14 7.8 28.2 13.8 42 6.1 13.8 13.4 27 22 39.1 3.4 4.8 7.1 9.5 10.9 14 1.9 2.3 3.9 4.5 5.9 6.5.5.5 1 1 1.5 1.5.3.2.5.5.8.7.2.1.4.3.8.6.9.5 1.9.8 2.9.8h.3c1 0 2-.3 2.9-.8.4-.3.6-.5.8-.6.3-.2.5-.5.8-.7.5-.5 1-1 1.5-1.5 2-2 4-4.2 5.9-6.5 3.8-4.5 7.4-9.2 10.9-14 8.6-12.1 15.9-25.4 22-39.1 6-13.8 10.7-28 13.8-42 6.1-27.5 6.9-55.6 2-82.1-1.2-6.7-6.9-11.6-13.7-11.6h-93.1c-6.7 0-12.4 4.9-13.7 11.6z" fill="#8F00FF"/>
    <path d="M440 130H165c-8.3 0-15 6.7-15 15s6.7 15 15 15h275c8.3 0 15-6.7 15-15s-6.7-15-15-15z" fill="#0099FF"/>
    <path d="M165 190c-8.3 0-15 6.7-15 15s6.7 15 15 15h220c8.3 0 15-6.7 15-15s-6.7-15-15-15H165z" fill="#0099FF"/>
    <path d="M165 240c-8.3 0-15 6.7-15 15s6.7 15 15 15h180c8.3 0 15-6.7 15-15s-6.7-15-15-15H165z" fill="#0099FF"/>
    <path d="M71.4 112c8.5 0 15.6-4.6 19.5-11.4 3.9-6.8 3.9-15.2 0-22.1-3.9-6.8-11-11.4-19.5-11.4-12.4 0-22.6 10.1-22.6 22.5s10.1 22.5 22.6 22.5v-.1z" fill="#0099FF"/>
    <path d="M109.6 138.5c3.9-6.8 3.9-15.2 0-22.1-3.9-6.8-11-11.4-19.5-11.4-12.4 0-22.6 10.1-22.6 22.5s10.1 22.5 22.6 22.5c8.5 0 15.6-4.6 19.5-11.4v-.1z" fill="#0099FF"/>
    <path d="M128.7 152.5c-12.4 0-22.6 10.1-22.6 22.5s10.1 22.5 22.6 22.5c8.5 0 15.6-4.6 19.5-11.4 3.9-6.8 3.9-15.2 0-22.1-3.9-6.8-11-11.4-19.5-11.4v-.1z" fill="#0099FF"/>
    <path d="M334.1 290h120c8.3 0 15.1-6.7 15.1-15s-6.7-15-15-15H334c-8.3 0-15 6.7-15 15s6.7 15 15 15z" fill="#8F00FF"/>
    <path d="M334.1 230h150c8.3 0 15.1-6.7 15.1-15s-6.7-15-15-15h-150c-8.3 0-15 6.7-15 15s6.7 15 15 15z" fill="#8F00FF"/>
  </g>
</svg>
