
<svg xmlns="http://www.w3.org/2000/svg" width="64" height="64" viewBox="0 0 64 64" fill="none">
  <rect width="64" height="64" rx="16" fill="url(#paint0_linear)" />
  <path d="M32 18C26.48 18 22 22.48 22 28C22 31.84 24.08 35.16 27.2 36.88C27.08 37.68 26.8 38.76 26.32 39.72C25.84 40.68 25.2 41.64 24.32 42.52C25.36 42.36 26.68 41.96 28.12 41.28C29.56 40.6 31.08 39.6 32.36 38.16C32.36 38.16 32.36 38.16 32.4 38.16C38 37.96 42 33.52 42 28C42 22.48 37.52 18 32 18Z" fill="white"/>
  <path d="M32 24C31.44 24 31 24.44 31 25V31C31 31.56 31.44 32 32 32C32.56 32 33 31.56 33 31V25C33 24.44 32.56 24 32 24Z" fill="#3A8DFF"/>
  <path d="M32 34C31.44 34 31 34.44 31 35V35.04C31 35.6 31.44 36.04 32 36.04C32.56 36.04 33 35.6 33 35.04V35C33 34.44 32.56 34 32 34Z" fill="#3A8DFF"/>
  <defs>
    <linearGradient id="paint0_linear" x1="0" y1="0" x2="64" y2="64" gradientUnits="userSpaceOnUse">
      <stop stop-color="#3A8DFF"/>
      <stop offset="0.5" stop-color="#8F00FF"/>
      <stop offset="1" stop-color="#AAFF00"/>
    </linearGradient>
  </defs>
</svg>
